<svg width="46" height="46" viewBox="0 0 46 46" fill="none" xmlns="http://www.w3.org/2000/svg">
<rect x="1" y="1" width="44" height="44" rx="22" stroke="#41495D"/>
<path d="M29.1542 15.1184C27.3772 13.3371 25.0107 12.3574 22.4958 12.3574C17.3047 12.3574 13.0806 16.5815 13.0806 21.7726C13.0806 23.4309 13.5132 25.0509 14.3359 26.4802L13 31.3574L17.9917 30.0469C19.3658 30.7976 20.9138 31.192 22.4915 31.192H22.4958C27.6826 31.192 32 26.9679 32 21.7768C32 19.2619 30.9312 16.8996 29.1542 15.1184ZM22.4958 29.6059C21.0877 29.6059 19.7094 29.2284 18.5092 28.5159L18.225 28.3463L15.2647 29.1224L16.0536 26.2342L15.867 25.9373C15.0824 24.6905 14.671 23.2527 14.671 21.7726C14.671 17.4594 18.1826 13.9478 22.5 13.9478C24.5908 13.9478 26.5545 14.7621 28.0304 16.2422C29.5062 17.7224 30.4138 19.686 30.4096 21.7768C30.4096 26.0943 26.8089 29.6059 22.4958 29.6059ZM26.7877 23.7447C26.5545 23.6259 25.3967 23.0576 25.1804 22.9813C24.9641 22.9007 24.8071 22.8626 24.6502 23.1001C24.4933 23.3376 24.0437 23.8634 23.9038 24.0246C23.7681 24.1815 23.6281 24.2027 23.3949 24.084C22.0123 23.3927 21.1047 22.8498 20.1929 21.2849C19.9511 20.8693 20.4346 20.8989 20.8842 19.9998C20.9605 19.8429 20.9223 19.7072 20.8629 19.5884C20.8036 19.4697 20.3328 18.3119 20.1377 17.8411C19.9469 17.3831 19.7518 17.4467 19.6076 17.4382C19.4719 17.4297 19.315 17.4297 19.158 17.4297C19.0011 17.4297 18.7467 17.4891 18.5304 17.7224C18.3141 17.9599 17.7076 18.5282 17.7076 19.686C17.7076 20.8438 18.5516 21.9634 18.6661 22.1204C18.7848 22.2773 20.3243 24.6523 22.6866 25.6744C24.1795 26.319 24.7647 26.3742 25.5112 26.2639C25.965 26.196 26.9022 25.6956 27.0973 25.1443C27.2924 24.5929 27.2924 24.1222 27.233 24.0246C27.1779 23.9186 27.021 23.8592 26.7877 23.7447Z" fill="#06080D"/>
</svg>
