<svg width="46" height="46" viewBox="0 0 46 46" fill="none" xmlns="http://www.w3.org/2000/svg">
<rect x="1" y="1" width="44" height="44" rx="22" stroke="#41495D"/>
<path d="M33 16.0124C32.2511 16.3594 31.4567 16.5872 30.6433 16.6882C31.4905 16.1571 32.1411 15.316 32.4474 14.3139C31.642 14.8138 30.7608 15.166 29.8419 15.3553C29.0934 14.5212 28.027 14 26.8468 14C24.5807 14 22.7434 15.9216 22.7434 18.2916C22.7434 18.628 22.7798 18.9555 22.8497 19.2697C19.4395 19.0906 16.4161 17.3821 14.3923 14.7856C14.0391 15.4194 13.8368 16.1567 13.8368 16.9431C13.8368 18.4321 14.5612 19.7456 15.6622 20.5153C15.0106 20.4939 14.3733 20.3099 13.8036 19.9784C13.8034 19.9964 13.8034 20.0144 13.8034 20.0324C13.8034 22.1118 15.2177 23.8464 17.0948 24.2406C16.4905 24.4125 15.8567 24.4377 15.2418 24.3142C15.7639 26.0192 17.2793 27.2599 19.0748 27.2947C17.6705 28.4457 15.9012 29.1318 13.9788 29.1318C13.6476 29.1318 13.321 29.1115 13 29.0718C14.8159 30.2895 16.9727 31 19.2898 31C26.8373 31 30.9644 24.4605 30.9644 18.7893C30.9644 18.6031 30.9605 18.418 30.9525 18.234C31.7558 17.6266 32.4492 16.8743 33 16.0124Z" fill="#06080D"/>
</svg>
