<svg width="46" height="46" viewBox="0 0 46 46" fill="none" xmlns="http://www.w3.org/2000/svg">
<rect x="1" y="1" width="44" height="44" rx="22" stroke="#41495D"/>
<path fill-rule="evenodd" clip-rule="evenodd" d="M20.429 19.9688H24.143V21.8188C24.678 20.7548 26.05 19.7988 28.111 19.7988C32.062 19.7988 33 21.9168 33 25.8028V32.9998H29V26.6878C29 24.4748 28.465 23.2268 27.103 23.2268C25.214 23.2268 24.429 24.5718 24.429 26.6868V32.9998H20.429V19.9688ZM13.57 32.8298H17.57V19.7988H13.57V32.8298ZM18.143 15.5498C18.1431 15.885 18.0767 16.217 17.9474 16.5263C17.8181 16.8357 17.6287 17.1163 17.39 17.3518C16.9064 17.8324 16.2518 18.1014 15.57 18.0998C14.8894 18.0993 14.2363 17.831 13.752 17.3528C13.5142 17.1165 13.3254 16.8356 13.1963 16.5262C13.0673 16.2168 13.0006 15.885 13 15.5498C13 14.8728 13.27 14.2248 13.753 13.7468C14.2369 13.2679 14.8902 12.9995 15.571 12.9998C16.253 12.9998 16.907 13.2688 17.39 13.7468C17.872 14.2248 18.143 14.8728 18.143 15.5498Z" fill="#06080D"/>
</svg>
