<svg width="46" height="46" viewBox="0 0 46 46" fill="none" xmlns="http://www.w3.org/2000/svg">
<rect x="1" y="1" width="44" height="44" rx="22" stroke="#41495D"/>
<path d="M22.999 18.377C21.7726 18.377 20.5965 18.8641 19.7293 19.7313C18.8622 20.5985 18.375 21.7746 18.375 23.001C18.375 24.2273 18.8622 25.4034 19.7293 26.2706C20.5965 27.1378 21.7726 27.625 22.999 27.625C24.2254 27.625 25.4015 27.1378 26.2687 26.2706C27.1358 25.4034 27.623 24.2273 27.623 23.001C27.623 21.7746 27.1358 20.5985 26.2687 19.7313C25.4015 18.8641 24.2254 18.377 22.999 18.377ZM22.999 26.004C22.2023 26.004 21.4382 25.6875 20.8749 25.1241C20.3115 24.5607 19.995 23.7967 19.995 23C19.995 22.2032 20.3115 21.4392 20.8749 20.8758C21.4382 20.3124 22.2023 19.996 22.999 19.996C23.7957 19.996 24.5598 20.3124 25.1231 20.8758C25.6865 21.4392 26.003 22.2032 26.003 23C26.003 23.7967 25.6865 24.5607 25.1231 25.1241C24.5598 25.6875 23.7957 26.004 22.999 26.004Z" fill="#06080D"/>
<path d="M27.8046 19.2849C28.3999 19.2849 28.8826 18.8023 28.8826 18.2069C28.8826 17.6115 28.3999 17.1289 27.8046 17.1289C27.2092 17.1289 26.7266 17.6115 26.7266 18.2069C26.7266 18.8023 27.2092 19.2849 27.8046 19.2849Z" fill="#06080D"/>
<path d="M31.5349 17.1099C31.3034 16.5121 30.9496 15.9692 30.4962 15.516C30.0428 15.0627 29.4998 14.7092 28.9019 14.4779C28.2022 14.2153 27.4631 14.0732 26.7159 14.0579C25.7529 14.0159 25.4479 14.0039 23.0059 14.0039C20.5639 14.0039 20.2509 14.0039 19.2959 14.0579C18.5493 14.0725 17.8107 14.2145 17.1119 14.4779C16.5138 14.7089 15.9707 15.0624 15.5172 15.5156C15.0638 15.9689 14.7101 16.5119 14.4789 17.1099C14.2162 17.8095 14.0745 18.5487 14.0599 19.2959C14.0169 20.2579 14.0039 20.5629 14.0039 23.0059C14.0039 25.4479 14.0039 25.7589 14.0599 26.7159C14.0749 27.4639 14.2159 28.2019 14.4789 28.9029C14.7108 29.5007 15.0648 30.0435 15.5183 30.4967C15.9719 30.9499 16.515 31.3035 17.1129 31.5349C17.8103 31.8081 18.5493 31.9603 19.2979 31.9849C20.2609 32.0269 20.5659 32.0399 23.0079 32.0399C25.4499 32.0399 25.7629 32.0399 26.7179 31.9849C27.465 31.9697 28.2041 31.828 28.9039 31.5659C29.5017 31.3341 30.0445 30.9802 30.4979 30.5269C30.9512 30.0735 31.3051 29.5307 31.5369 28.9329C31.7999 28.2329 31.9409 27.4949 31.9559 26.7469C31.9989 25.7849 32.0119 25.4799 32.0119 23.0369C32.0119 20.5939 32.0119 20.2839 31.9559 19.3269C31.9443 18.5692 31.8018 17.8192 31.5349 17.1099ZM30.3169 26.6419C30.3105 27.2182 30.2053 27.7891 30.0059 28.3299C29.8557 28.7188 29.6258 29.0719 29.331 29.3666C29.0361 29.6613 28.6829 29.891 28.2939 30.0409C27.7591 30.2394 27.1943 30.3445 26.6239 30.3519C25.6739 30.3959 25.4059 30.4069 22.9699 30.4069C20.5319 30.4069 20.2829 30.4069 19.3149 30.3519C18.7448 30.3449 18.1802 30.2397 17.6459 30.0409C17.2556 29.8919 16.9009 29.6626 16.6048 29.3679C16.3087 29.0731 16.0777 28.7195 15.9269 28.3299C15.7304 27.795 15.6252 27.2307 15.6159 26.6609C15.5729 25.7109 15.5629 25.4429 15.5629 23.0069C15.5629 20.5699 15.5629 20.3209 15.6159 19.3519C15.6224 18.7759 15.7276 18.2053 15.9269 17.6649C16.2319 16.8759 16.8569 16.2549 17.6459 15.9529C18.1805 15.755 18.7449 15.6499 19.3149 15.6419C20.2659 15.5989 20.5329 15.5869 22.9699 15.5869C25.4069 15.5869 25.6569 15.5869 26.6239 15.6419C27.1943 15.6488 27.7593 15.754 28.2939 15.9529C28.6828 16.1032 29.036 16.3331 29.3309 16.6279C29.6257 16.9228 29.8556 17.276 30.0059 17.6649C30.2025 18.1999 30.3076 18.7641 30.3169 19.3339C30.3599 20.2849 30.3709 20.5519 30.3709 22.9889C30.3709 25.4249 30.3709 25.6869 30.3279 26.6429H30.3169V26.6419Z" fill="#06080D"/>
</svg>
