<svg width="58" height="40" viewBox="0 0 58 40" fill="none" xmlns="http://www.w3.org/2000/svg">
<path d="M25.0316 28.5714C25.0316 35.0739 20.3509 40 13.2281 40C6.10526 40 0 34.4828 0 24.6305C0 12.4138 9.56491 1.97044 21.979 0V7.29064C14.8561 8.66994 9.56491 13.5961 9.56491 19.3103C10.786 18.5222 12.414 17.931 15.0596 17.931C20.3509 17.931 25.0316 21.6749 25.0316 28.5714ZM58 28.5714C58 35.0739 53.1158 40 45.993 40C39.0737 40 32.7649 34.4828 32.7649 24.6305C32.7649 12.4138 42.3298 1.97044 54.9474 0V7.29064C47.8246 8.66994 42.5333 13.5961 42.5333 19.1133C43.7544 18.3251 45.586 17.931 48.0281 17.931C53.3193 17.931 58 21.6749 58 28.5714Z" fill="#D8D9DC"/>
</svg>
